<svg width="41" height="26" viewBox="0 0 41 26" fill="none" xmlns="http://www.w3.org/2000/svg">
<path d="M21.16 8.28C21.16 9.29333 20.9733 10.24 20.6 11.12C20.2533 11.9733 19.7733 12.7333 19.16 13.4C19.7733 14.0667 20.2533 14.84 20.6 15.72C20.9733 16.5733 21.16 17.4933 21.16 18.48V26H16.12V18.48C16.12 17.76 15.8667 17.1467 15.36 16.64C14.8533 16.1333 14.24 15.8667 13.52 15.84H7.24V10.92H13.76C14.4267 10.8667 14.9867 10.5867 15.44 10.08C15.8933 9.57333 16.12 8.97333 16.12 8.28C16.12 7.61333 15.8933 7.04 15.44 6.56C15.0133 6.05333 14.48 5.74667 13.84 5.64H5.12V26H0V0.799998H13.76C14.7733 0.799998 15.7333 0.999998 16.64 1.4C17.5467 1.8 18.3333 2.34667 19 3.04C19.6667 3.70667 20.1867 4.49333 20.56 5.4C20.96 6.28 21.16 7.24 21.16 8.28ZM33.8041 5.92H31.0441V20.88H33.8041V26H23.1641V20.88H25.9241V5.92H23.1641V0.799998H33.8041V5.92ZM35.8203 23.48C35.8203 22.7867 36.0603 22.2 36.5403 21.72C37.047 21.2133 37.647 20.96 38.3403 20.96C39.0336 20.96 39.6203 21.2133 40.1003 21.72C40.607 22.2 40.8603 22.7867 40.8603 23.48C40.8603 24.1733 40.607 24.7733 40.1003 25.28C39.6203 25.76 39.0336 26 38.3403 26C37.647 26 37.047 25.76 36.5403 25.28C36.0603 24.7733 35.8203 24.1733 35.8203 23.48Z" fill="#231F20"/>
</svg>
